<svg xmlns="http://www.w3.org/2000/svg" viewBox="0 0 2200 200" role="img" aria-labelledby="research-ribbon-title research-ribbon-desc">
  <title id="research-ribbon-title">Research themes</title>
  <desc id="research-ribbon-desc">A blue ribbon connects scholarly publications on a laptop, granted patents represented by a gavel and shield, funded research represented by a lock and microscope, and a paper receiving incoming citations.</desc>
  <defs>
    <linearGradient id="ribbon-gradient" x1="0" y1="0" x2="1" y2="0">
      <stop offset="0" stop-color="#0550ae"/>
      <stop offset="0.48" stop-color="#1677d2"/>
      <stop offset="1" stop-color="#0b4ba0"/>
    </linearGradient>
    <linearGradient id="icon-fill" x1="0" y1="0" x2="0" y2="1">
      <stop offset="0" stop-color="#f7fbff"/>
      <stop offset="1" stop-color="#dceeff"/>
    </linearGradient>
    <pattern id="binary-pattern" width="76" height="46" patternUnits="userSpaceOnUse">
      <g fill="#73b8f2" font-family="ui-monospace, SFMono-Regular, Menlo, monospace" font-size="9" opacity="0.18">
        <text x="8" y="13">1</text><text x="31" y="31">0</text><text x="57" y="18">1</text>
        <text x="13" y="41">0</text><text x="65" y="43">1</text>
      </g>
    </pattern>
    <filter id="soft-shadow" x="-30%" y="-30%" width="160%" height="170%">
      <feDropShadow dx="0" dy="3" stdDeviation="4" flood-color="#173f70" flood-opacity="0.13"/>
    </filter>
    <marker id="citation-arrow" viewBox="0 0 8 8" refX="7" refY="4" markerWidth="6" markerHeight="6" orient="auto" markerUnits="strokeWidth">
      <path d="M0 0 L8 4 L0 8 Z" fill="#075bb8"/>
    </marker>
  </defs>

  <rect width="2200" height="200" fill="#fff"/>
  <rect width="2200" height="200" fill="url(#binary-pattern)"/>

  <path d="M0 111 C170 111 218 117 322 109 C445 99 518 94 636 108 C756 123 809 129 928 112 C1052 94 1137 96 1255 113 C1372 130 1441 127 1562 108 C1692 88 1776 90 1892 107 C2015 125 2085 119 2200 110 L2200 132 C2074 141 2011 145 1885 128 C1768 112 1696 110 1572 128 C1447 147 1363 147 1245 130 C1129 113 1054 113 936 131 C810 149 737 142 626 127 C512 112 445 117 329 128 C212 139 139 132 0 132 Z" fill="url(#ribbon-gradient)" opacity="0.94"/>
  <path d="M0 111 C170 111 218 117 322 109 C445 99 518 94 636 108 C756 123 809 129 928 112 C1052 94 1137 96 1255 113 C1372 130 1441 127 1562 108 C1692 88 1776 90 1892 107 C2015 125 2085 119 2200 110" fill="none" stroke="#58a8ea" stroke-width="4" opacity="0.72"/>

  <!-- Official Lucide icon geometry; ISC license: /assets/licenses/lucide.txt. -->
  <!-- Publications: a scholarly open book and laptop. -->
  <g transform="translate(440 72)" fill="none" stroke="#075bb8" stroke-linecap="round" stroke-linejoin="round" filter="url(#soft-shadow)">
    <g transform="translate(-86 -67) scale(4.3)" stroke-width="0.95">
      <path d="M12 7v14"/>
      <path d="M16 12h2"/>
      <path d="M16 8h2"/>
      <path d="M3 18a1 1 0 0 1-1-1V4a1 1 0 0 1 1-1h5a4 4 0 0 1 4 4 4 4 0 0 1 4-4h5a1 1 0 0 1 1 1v13a1 1 0 0 1-1 1h-6a3 3 0 0 0-3 3 3 3 0 0 0-3-3z" fill="url(#icon-fill)"/>
      <path d="M6 12h2"/>
      <path d="M6 8h2"/>
    </g>
    <g transform="translate(10 -70) scale(3.4)" stroke-width="1.18">
      <path d="M18 5a2 2 0 0 1 2 2v8.526a2 2 0 0 0 .212.897l1.068 2.127a1 1 0 0 1-.9 1.45H3.62a1 1 0 0 1-.9-1.45l1.068-2.127A2 2 0 0 0 4 15.526V7a2 2 0 0 1 2-2z" fill="#fff"/>
      <path d="M20.054 15.987H3.946"/>
    </g>
  </g>

  <!-- Patents: documents, a legal gavel, and a granted-patent shield. -->
  <g transform="translate(880 72)" fill="none" stroke="#075bb8" stroke-width="4" stroke-linecap="round" stroke-linejoin="round" filter="url(#soft-shadow)">
    <rect x="-64" y="-5" width="96" height="72" rx="8" fill="#cfe8ff" opacity="0.8"/>
    <rect x="-49" y="-18" width="96" height="72" rx="8" fill="#e8f5ff"/>
    <rect x="-34" y="-31" width="96" height="72" rx="8" fill="#fff"/>
    <path d="M-15 -9 H39 M-15 5 H33 M-15 19 H22" stroke-width="3" opacity="0.66"/>
    <g transform="translate(-100 -69) scale(3)" stroke-width="1.33">
      <path d="m14 13-8.381 8.38a1 1 0 0 1-3.001-3l8.384-8.381"/>
      <path d="m16 16 6-6"/>
      <path d="m21.5 10.5-8-8"/>
      <path d="m8 8 6-6"/>
      <path d="m8.5 7.5 8 8"/>
    </g>
    <g transform="translate(26 -72) scale(3.55)" stroke-width="1.13">
      <path d="M20 13c0 5-3.5 7.5-7.66 8.95a1 1 0 0 1-.67-.01C7.5 20.5 4 18 4 13V6a1 1 0 0 1 1-1c2 0 4.5-1.2 6.24-2.72a1.17 1.17 0 0 1 1.52 0C14.51 3.81 17 5 19 5a1 1 0 0 1 1 1z" fill="url(#icon-fill)"/>
      <path d="m9 12 2 2 4-4"/>
    </g>
  </g>

  <!-- Funded R&amp;D: secure systems on the left and experimental research on the right. -->
  <g transform="translate(1320 72)" fill="none" stroke="#075bb8" stroke-linecap="round" stroke-linejoin="round" filter="url(#soft-shadow)">
    <path d="M-3 -18 H9" stroke="#8bbcec" stroke-width="3" opacity="0.72"/>
    <circle cx="-46" cy="-18" r="43" fill="#fff" stroke="#b6d7fb" stroke-width="3"/>
    <circle cx="52" cy="-18" r="43" fill="#fff" stroke="#b6d7fb" stroke-width="3"/>
    <g transform="translate(-82 -58) scale(3.05)" stroke-width="1.31">
      <circle cx="12" cy="16" r="1"/>
      <rect x="3" y="10" width="18" height="12" rx="2" fill="url(#icon-fill)"/>
      <path d="M7 10V7a5 5 0 0 1 10 0v3"/>
    </g>
    <g transform="translate(15 -58) scale(3.05)" stroke-width="1.31">
      <path d="M6 18h8"/>
      <path d="M3 22h18"/>
      <path d="M14 22a7 7 0 1 0 0-14h-1"/>
      <path d="M9 14h2"/>
      <path d="M9 12a2 2 0 0 1-2-2V6h6v4a2 2 0 0 1-2 2Z" fill="url(#icon-fill)"/>
      <path d="M12 6V3a1 1 0 0 0-1-1H9a1 1 0 0 0-1 1v3"/>
    </g>
  </g>

  <!-- Citations: papers in an incoming citation graph and an active writing pen. -->
  <g transform="translate(1760 72)" fill="none" stroke="#075bb8" stroke-width="4" stroke-linecap="round" stroke-linejoin="round" filter="url(#soft-shadow)">
    <g stroke-width="3" opacity="0.9">
      <path d="M-75 -29 C-57 -28 -52 -21 -39 -14" marker-end="url(#citation-arrow)"/>
      <path d="M-74 40 C-54 39 -49 27 -38 17" marker-end="url(#citation-arrow)"/>
      <path d="M73 -34 C56 -34 49 -25 39 -18" marker-end="url(#citation-arrow)"/>
      <path d="M73 41 C55 40 48 29 39 20" marker-end="url(#citation-arrow)"/>
      <path d="M-75 -29 C-57 -7 -57 21 -74 40 M73 -34 C91 -10 91 20 73 41" opacity="0.48"/>
      <g fill="#e8f5ff">
        <g transform="translate(-94 -48)"><rect width="38" height="43" rx="5"/><path d="M8 13 H29 M8 22 H26 M8 31 H22"/></g>
        <g transform="translate(-94 21)"><rect width="38" height="43" rx="5"/><path d="M8 13 H29 M8 22 H25 M8 31 H21"/></g>
        <g transform="translate(56 -53)"><rect width="38" height="43" rx="5"/><path d="M8 13 H29 M8 22 H26 M8 31 H22"/></g>
        <g transform="translate(56 19)"><rect width="38" height="43" rx="5"/><path d="M8 13 H29 M8 22 H25 M8 31 H21"/></g>
      </g>
    </g>
    <g>
      <path d="M-38 -52 H20 L39 -33 V57 H-38 Z" fill="#fff"/>
      <path d="M20 -52 V-33 H39" fill="#dceeff"/>
      <path d="M-24 -25 H24 M-24 -10 H24 M-24 5 H14 M-24 20 H4" stroke-width="3" opacity="0.66"/>
      <path d="M-17 28 Q-8 22 0 27 Q8 32 16 24" stroke-width="3" opacity="0.72"/>
    </g>
    <g transform="translate(30 6) rotate(-38)">
      <path d="M-7 -4 H50 L62 4 L50 12 H-7 Z" fill="#cfe8ff"/>
      <path d="M-7 -4 L-22 4 L-7 12 Z" fill="#fff"/>
      <path d="M-22 4 H-14"/>
      <path d="M43 -4 V12" stroke-width="3"/>
    </g>
  </g>
</svg>
